<svg width="1110" height="1024" viewBox="0 0 1110 1024" fill="none" xmlns="http://www.w3.org/2000/svg">
<path d="M555 721.774C646.589 721.774 721.774 646.589 721.774 555C721.774 463.412 646.589 388.227 555 388.227C463.412 388.227 388.227 463.412 388.227 555C388.227 646.589 463.412 721.774 555 721.774Z" fill="#2F2E2E"/>
<path d="M555 0C498.953 0 444.273 8.20222 393.695 24.6062V315.776C438.805 285.702 493.485 267.931 552.266 267.931C712.204 267.931 840.702 397.796 840.702 556.367C840.702 716.306 710.838 844.803 552.266 844.803C392.328 844.803 263.83 714.939 263.83 556.367V538.596V83.3868C105.259 180.443 0 355.419 0 555C0 861.207 248.793 1110 555 1110C861.207 1110 1110 861.207 1110 555C1110 248.793 861.207 0 555 0Z" fill="#2F2E2E"/>
</svg>
