<svg width="82" height="82" viewBox="0 0 82 82" fill="none" xmlns="http://www.w3.org/2000/svg">
<path d="M40.6 52.8C47.3 52.8 52.8 47.3 52.8 40.6C52.8 33.9 47.3 28.4 40.6 28.4C33.9 28.4 28.4 33.9 28.4 40.6C28.4 47.3 33.9 52.8 40.6 52.8Z" fill="#FBF4EE"/>
<path d="M40.6 0C36.5 0 32.5 0.600018 28.8 1.80002V23.1C32.1 20.9 36.1 19.6 40.4 19.6C52.1 19.6 61.5 29.1 61.5 40.7C61.5 52.4 52 61.8 40.4 61.8C28.7 61.8 19.3 52.3 19.3 40.7V39.4V6.10001C7.7 13.2 0 26 0 40.6C0 63 18.2 81.2 40.6 81.2C63 81.2 81.2 63 81.2 40.6C81.2 18.2 63 0 40.6 0Z" fill="#FBF4EE"/>
</svg>
