<svg width="465" height="465" viewBox="0 0 465 465" fill="none" xmlns="http://www.w3.org/2000/svg">
<path d="M232.5 302.365C270.868 302.365 302.365 270.868 302.365 232.5C302.365 194.132 270.868 162.636 232.5 162.636C194.132 162.636 162.636 194.132 162.636 232.5C162.636 270.868 194.132 302.365 232.5 302.365Z" fill="#2F2E2E"/>
<path d="M232.5 0C209.021 0 186.115 3.43607 164.926 10.308V132.285C183.824 119.686 206.73 112.241 231.355 112.241C298.356 112.241 352.186 166.644 352.186 233.073C352.186 300.074 297.783 353.904 231.355 353.904C164.353 353.904 110.523 299.501 110.523 233.073V225.628V34.9323C44.0948 75.5912 0 148.892 0 232.5C0 360.776 104.224 465 232.5 465C360.776 465 465 360.776 465 232.5C465 104.224 360.776 0 232.5 0Z" fill="#2F2E2E"/>
</svg>
