<svg width="621" height="771" viewBox="0 0 621 771" fill="none" xmlns="http://www.w3.org/2000/svg">
<path d="M235.5 501.34C299.117 501.34 351.34 449.117 351.34 385.5C351.34 321.883 299.117 269.66 235.5 269.66C171.883 269.66 119.66 321.883 119.66 385.5C119.66 449.117 171.883 501.34 235.5 501.34Z" fill="#2F2E2E"/>
<path d="M235.5 0C196.57 0 158.59 5.69722 123.458 17.0913V219.336C154.792 198.447 192.772 186.104 233.601 186.104C344.693 186.104 433.947 276.307 433.947 386.45C433.947 497.542 343.744 586.796 233.601 586.796C122.509 586.796 33.2549 496.592 33.2549 386.45V374.106V57.92C-76.8879 125.335 -150 246.872 -150 385.5C-150 598.19 22.8104 771 235.5 771C448.19 771 621 598.19 621 385.5C621 172.81 448.19 0 235.5 0Z" fill="#2F2E2E"/>
</svg>
