<svg width="538" height="674" viewBox="0 0 538 674" fill="none" xmlns="http://www.w3.org/2000/svg">
<path d="M201 438.266C256.613 438.266 302.266 392.614 302.266 337C302.266 281.387 256.613 235.734 201 235.734C145.387 235.734 99.7341 281.387 99.7341 337C99.7341 392.614 145.387 438.266 201 438.266Z" fill="#2F2E2E"/>
<path d="M201 0C166.968 0 133.766 4.98045 103.054 14.941V191.741C130.446 173.48 163.648 162.69 199.34 162.69C296.456 162.69 374.48 241.544 374.48 337.83C374.48 434.946 295.626 512.971 199.34 512.971C102.224 512.971 24.1995 434.116 24.1995 337.83V327.039V50.6331C-72.0862 109.567 -136 215.813 -136 337C-136 522.931 15.069 674 201 674C386.931 674 538 522.931 538 337C538 151.069 386.931 0 201 0Z" fill="#2F2E2E"/>
</svg>
