<svg width="30" height="30" viewBox="0 0 30 30" fill="none" xmlns="http://www.w3.org/2000/svg">
<path fill-rule="evenodd" clip-rule="evenodd" d="M4.28571 6.57143C5.54808 6.57143 6.57143 5.54808 6.57143 4.28571C6.57143 3.02335 5.54808 2 4.28571 2C3.02335 2 2 3.02335 2 4.28571C2 5.54808 3.02335 6.57143 4.28571 6.57143ZM4.28571 8.57143C6.65265 8.57143 8.57143 6.65265 8.57143 4.28571C8.57143 1.91878 6.65265 0 4.28571 0C1.91878 0 0 1.91878 0 4.28571C0 6.65265 1.91878 8.57143 4.28571 8.57143Z" fill="#FBF4EE"/>
<path fill-rule="evenodd" clip-rule="evenodd" d="M15.0001 6.57143C16.2624 6.57143 17.2858 5.54808 17.2858 4.28571C17.2858 3.02335 16.2624 2 15.0001 2C13.7377 2 12.7144 3.02335 12.7144 4.28571C12.7144 5.54808 13.7377 6.57143 15.0001 6.57143ZM15.0001 8.57143C17.367 8.57143 19.2858 6.65265 19.2858 4.28571C19.2858 1.91878 17.367 0 15.0001 0C12.6331 0 10.7144 1.91878 10.7144 4.28571C10.7144 6.65265 12.6331 8.57143 15.0001 8.57143Z" fill="#FBF4EE"/>
<path fill-rule="evenodd" clip-rule="evenodd" d="M25.7144 6.57143C26.9768 6.57143 28.0001 5.54808 28.0001 4.28571C28.0001 3.02335 26.9768 2 25.7144 2C24.4521 2 23.4287 3.02335 23.4287 4.28571C23.4287 5.54808 24.4521 6.57143 25.7144 6.57143ZM25.7144 8.57143C28.0814 8.57143 30.0001 6.65265 30.0001 4.28571C30.0001 1.91878 28.0814 0 25.7144 0C23.3475 0 21.4287 1.91878 21.4287 4.28571C21.4287 6.65265 23.3475 8.57143 25.7144 8.57143Z" fill="#FBF4EE"/>
<path fill-rule="evenodd" clip-rule="evenodd" d="M25.7144 17.2857C26.9768 17.2857 28.0001 16.2623 28.0001 14.9999C28.0001 13.7376 26.9768 12.7142 25.7144 12.7142C24.4521 12.7142 23.4287 13.7376 23.4287 14.9999C23.4287 16.2623 24.4521 17.2857 25.7144 17.2857ZM25.7144 19.2857C28.0814 19.2857 30.0001 17.3669 30.0001 14.9999C30.0001 12.633 28.0814 10.7142 25.7144 10.7142C23.3475 10.7142 21.4287 12.633 21.4287 14.9999C21.4287 17.3669 23.3475 19.2857 25.7144 19.2857Z" fill="#FBF4EE"/>
<path fill-rule="evenodd" clip-rule="evenodd" d="M25.7144 28C26.9768 28 28.0001 26.9767 28.0001 25.7143C28.0001 24.4519 26.9768 23.4286 25.7144 23.4286C24.4521 23.4286 23.4287 24.4519 23.4287 25.7143C23.4287 26.9767 24.4521 28 25.7144 28ZM25.7144 30C28.0814 30 30.0001 28.0812 30.0001 25.7143C30.0001 23.3474 28.0814 21.4286 25.7144 21.4286C23.3475 21.4286 21.4287 23.3474 21.4287 25.7143C21.4287 28.0812 23.3475 30 25.7144 30Z" fill="#FBF4EE"/>
<path fill-rule="evenodd" clip-rule="evenodd" d="M15.0001 28C16.2624 28 17.2858 26.9767 17.2858 25.7143C17.2858 24.4519 16.2624 23.4286 15.0001 23.4286C13.7377 23.4286 12.7144 24.4519 12.7144 25.7143C12.7144 26.9767 13.7377 28 15.0001 28ZM15.0001 30C17.367 30 19.2858 28.0812 19.2858 25.7143C19.2858 23.3474 17.367 21.4286 15.0001 21.4286C12.6331 21.4286 10.7144 23.3474 10.7144 25.7143C10.7144 28.0812 12.6331 30 15.0001 30Z" fill="#FBF4EE"/>
<path fill-rule="evenodd" clip-rule="evenodd" d="M4.28571 28C5.54808 28 6.57143 26.9767 6.57143 25.7143C6.57143 24.4519 5.54808 23.4286 4.28571 23.4286C3.02335 23.4286 2 24.4519 2 25.7143C2 26.9767 3.02335 28 4.28571 28ZM4.28571 30C6.65265 30 8.57143 28.0812 8.57143 25.7143C8.57143 23.3474 6.65265 21.4286 4.28571 21.4286C1.91878 21.4286 0 23.3474 0 25.7143C0 28.0812 1.91878 30 4.28571 30Z" fill="#FBF4EE"/>
<path fill-rule="evenodd" clip-rule="evenodd" d="M4.28571 17.2857C5.54808 17.2857 6.57143 16.2623 6.57143 14.9999C6.57143 13.7376 5.54808 12.7142 4.28571 12.7142C3.02335 12.7142 2 13.7376 2 14.9999C2 16.2623 3.02335 17.2857 4.28571 17.2857ZM4.28571 19.2857C6.65265 19.2857 8.57143 17.3669 8.57143 14.9999C8.57143 12.633 6.65265 10.7142 4.28571 10.7142C1.91878 10.7142 0 12.633 0 14.9999C0 17.3669 1.91878 19.2857 4.28571 19.2857Z" fill="#FBF4EE"/>
<path fill-rule="evenodd" clip-rule="evenodd" d="M15.0001 17.2857C16.2624 17.2857 17.2858 16.2623 17.2858 14.9999C17.2858 13.7376 16.2624 12.7142 15.0001 12.7142C13.7377 12.7142 12.7144 13.7376 12.7144 14.9999C12.7144 16.2623 13.7377 17.2857 15.0001 17.2857ZM15.0001 19.2857C17.367 19.2857 19.2858 17.3669 19.2858 14.9999C19.2858 12.633 17.367 10.7142 15.0001 10.7142C12.6331 10.7142 10.7144 12.633 10.7144 14.9999C10.7144 17.3669 12.6331 19.2857 15.0001 19.2857Z" fill="#FBF4EE"/>
</svg>
