<svg width="269" height="330" viewBox="0 0 269 330" fill="none" xmlns="http://www.w3.org/2000/svg">
<path d="M104 214.581C131.229 214.581 153.581 192.229 153.581 165C153.581 137.771 131.229 115.419 104 115.419C76.7712 115.419 54.4189 137.771 54.4189 165C54.4189 192.229 76.7712 214.581 104 214.581Z" fill="#2F2E2E"/>
<path d="M104 0C87.3375 0 71.0813 2.4385 56.0443 7.31535V93.8793C69.4557 84.9385 85.7118 79.6552 103.187 79.6552C150.736 79.6552 188.938 118.264 188.938 165.406C188.938 212.956 150.33 251.158 103.187 251.158C55.6379 251.158 17.436 212.549 17.436 165.406V160.123V24.7907C-29.7069 53.6453 -61 105.665 -61 165C-61 256.035 12.9655 330 104 330C195.035 330 269 256.035 269 165C269 73.9655 195.035 0 104 0Z" fill="#2F2E2E"/>
</svg>
